<svg width="126" height="84" viewBox="0 0 78 90" fill="none" xmlns="http://www.w3.org/2000/svg">
<path d="M7 45H33C35.2 45 37 46.8 37 49V83C37 85.2 35.2 87 33 87H7C4.8 87 3 85.2 3 83V49C3 46.8 4.8 45 7 45Z" stroke="white" stroke-width="2.13" stroke-miterlimit="10"/>
<path d="M8.57616 37H31.4238C33.4106 37 35 38.561 35 40.5122V41.4878C35 43.439 33.4106 45 31.4238 45H8.57616C6.5894 45 5 43.439 5 41.4878V40.5122C5 38.561 6.5894 37 8.57616 37Z" stroke="white" stroke-width="2.13" stroke-miterlimit="10"/>
<path d="M3 59H37" stroke="white" stroke-width="2.13" stroke-miterlimit="10"/>
<path d="M3 73H37" stroke="white" stroke-width="2.13" stroke-miterlimit="10"/>
<path d="M48.1526 42.6763L48.2096 42.5622L48.2381 42.4379L54.829 13.6777C55.5081 11.5249 57.4988 10.065 59.6 10.065H64.3605C66.7586 10.2502 68.687 11.7804 69.1622 13.8393C69.1622 13.8393 69.1623 13.8394 69.1623 13.8395L75.7619 42.6379L75.7734 42.688L75.7897 42.7368C75.9309 43.1605 75.935 43.4099 75.935 44V83C75.935 85.8118 73.8118 87.935 71 87.935H53C50.1882 87.935 48.065 85.8118 48.065 83V43.8C48.065 43.4889 48.0658 43.2393 48.0856 43.0214C48.1061 42.7966 48.1401 42.7011 48.1526 42.6763Z" stroke="white" stroke-width="2.13"/>
<path d="M58 2.065H66C67.8019 2.065 68.935 3.26175 68.935 4.33333V7.66667C68.935 8.73825 67.8019 9.935 66 9.935H58C56.1981 9.935 55.065 8.73825 55.065 7.66667V4.33333C55.065 3.26175 56.1981 2.065 58 2.065Z" stroke="white" stroke-width="2.13"/>
</svg>
