<svg width="126" height="84" version="1.1" id="Layer_1" xmlns="http://www.w3.org/2000/svg" x="0" y="0" viewBox="0 0 93 89" style="enable-background:new 0 0 93 89" xml:space="preserve"><style>.st0{fill:#fff}</style><path class="st0" d="M10.1 14.5c-.3.3-.5.7-.5 1.1 0 .4.2.8.5 1.1.6.6 1.6.6 2.3 0 .3-.3.5-.7.5-1.1 0-.4-.2-.8-.5-1.1-.7-.6-1.7-.6-2.3 0z"/><path class="st0" d="M27.7 41.8v-2.1H15v-6.4h9.5v-2.1H15v-8.5h9.5c.6 0 1-.4 1.1-1 0-.5.6-12.8-11.2-20.1-.3-.2-.8-.2-1.1 0-.5.3-11 6.9-11.2 20.1 0 .3.1.6.3.8s.5.3.8.3h9.6v8.5H3.2v2.1h9.6v6.4H0v2.1h12.8v6.4H3.2v2.1h9.6v6.4H6.4v2.1h6.4v6.4H8.5v2.1h4.3V76c-2.6.3-9.2 2-10.7 11.5 0 .3 0 .6.2.9s.5.4.8.4h6.7c.1 0 2.2-.6 4-2.7.8.9 2.1 2 3.9 2.7.1 0 .2.1.4.1h6.4c.6 0 1.1-.5 1.1-1.1 0-.2 0-5.2-3.4-8.6-1.8-1.8-4.2-2.9-7.2-3.1v-8.5h4.2v-2.1H15v-6.4h6.4V57H15v-6.4h9.5v-2.1H15v-6.4h12.7v-.3zm-4.3 44.7h-5c-2.2-.9-3.6-2.9-3.6-2.9-.2-.3-.5-.5-.9-.5s-.7.2-.9.5c-1.3 2-3.1 2.8-3.5 2.9h-5c2-8.7 9-8.6 9.3-8.5h.2c2.8 0 5 .9 6.6 2.5 2 1.9 2.6 4.6 2.8 6zm-19.1-66c.6-9.7 7.6-15.4 9.6-16.8 8.4 5.6 9.5 14 9.6 16.8H4.3zM60.2 58.6c-.8 1.2-1.6 2.6-2 4 0 1.2.8 2 2 2s2-.8 2-2c-.4-1.4-1-2.6-2-4zM68.3 58.6c-.8 1.2-1.6 2.6-2 4 0 1.2.8 2 2 2s2-.8 2-2c-.4-1.4-1-2.6-2-4z"/><path class="st0" d="M91.6 41.7c-2.4-2-5.1-3.7-8-5.2-2.9-1.4-6-2.2-9.2-2.2h-.9c-3.3.1-6.6.6-8.3 1.1v-.7c1.1-.5 3.3-1.4 5.3-2.7 1-.6 1.9-1.2 2.5-1.7.8-.6 1.3-1.2 1.7-1.8.3-.5.5-1.3.5-2.2.1-.8 0-1.8-.1-2.9-.2-2-.7-4.1-1-5.3-.1-.5-.3-.8-.5-1s-.5-.4-.9-.4h-.2l-.2.1c-2 .7-3.6 1.4-5 2.1-1 .5-1.9 1-2.6 1.5-.8.6-1.4 1.2-1.7 1.8-.4.8-.6 1.9-.7 3.4-1.3-2-3-3.8-5.1-5.7l-1.4 1.6c4.7 4.3 7.1 7.6 7.2 14-1.7-.4-4.9-.9-8.2-1.1H54c-3.2 0-6.3.8-9.2 2.2-2.9 1.5-5.6 3.2-8 5.2-.9.8-1.4 1.7-1.4 2.8 0 1.9 1.5 3.4 3.3 3.4.4 0 1.1-.1 1.5-.3.2 0 .4-.1.6-.1 3.1 1.9 6.8 5.6 8.3 10.7 1.5 4.9 1.1 11.2-3.6 18.8-.1 0-.2 0-.3-.1-.4-.1-.8-.3-1.2-.3-1.4 0-2.6 1.4-2.6 3.1 0 1 .4 1.8 1.1 2.5 1.9 1.8 4.1 3.3 6.3 4.7 2.3 1.3 4.8 1.9 7.3 1.9h.7c3.5-.1 6.6-1.2 7.3-1.5.7.3 4 1.4 7.5 1.5h.7c2.5 0 5-.7 7.3-1.9 2.3-1.4 4.4-2.9 6.3-4.7.7-.7 1.1-1.5 1.1-2.5 0-1.7-1.2-3.1-2.6-3.1-.4 0-.8.1-1.2.3-4.7-7.6-5.1-13.9-3.6-18.8 1.5-5 5.1-8.7 8.2-10.6.1 0 .2 0 .3.1.4.1 1.1.3 1.5.3 1.8 0 3.3-1.5 3.3-3.4.1-1.2-.3-2.1-1.3-2.9zm-27-16c0-1.7.3-2.3.4-2.5.1-.1.3-.5 1.1-1.1.6-.4 1.4-.9 2.3-1.4 1.1-.5 2.4-1.1 3.9-1.6.3 1.2.7 2.9.8 4.5.1 1 .1 1.8.1 2.5 0 .9-.2 1.3-.2 1.4-.1.2-.4.6-1.2 1.2-.6.5-1.4 1-2.3 1.6-1.6.9-3.2 1.7-4.4 2.2-.1-.8-.2-1.7-.3-2.5-.1-1.8-.2-3.2-.2-4.3zm19.2 53.2c.3-.1.4-.1.5-.1h.1s.1.1.2.1c.1.2.3.4.3.8s-.1.7-.4 1c-1.7 1.7-3.7 3.1-5.9 4.4-2 1.1-4.1 1.7-6.2 1.7h-.7c-3.2-.1-6.2-1.1-6.7-1.4l-.8-.4-.8.3c-.6.2-3.4 1.2-6.5 1.4h-.7c-2.1 0-4.2-.6-6.2-1.7-2.2-1.3-4.2-2.8-5.9-4.4-.3-.3-.4-.6-.4-1 0-.3.1-.6.3-.8.1-.1.1-.1.2-.1h.1c.1 0 .2.1.3.1l.1.1h.1c1.7.4 3.3.7 5 .9h.2c.9 0 1.9-.2 2.7-.3 1.2-.3 2.2-.9 3.1-1.4.5-.3 1.1-.7 1.6-1.1.9.7 1.8 1.2 2.9 1.5 1.2.4 2.5.6 4 .6 1.4 0 2.7-.2 4-.6 1-.3 1.9-.9 2.8-1.5.1.1.2.1.3.2l.1.1c.4.3.8.6 1.2.8.8.5 1.9 1.1 3.1 1.4H76.1c.7.1 1.6.3 2.6.3h.2c1.5-.1 3.2-.4 4.9-.9zm-6.2-21.4c-1.7 5.4-1.2 12.1 3.4 19.9-.8.2-1.7.3-2.5.3-.7 0-1.5-.1-2.2-.3-1.3-.3-2.5-1.2-3.7-2-.3-.2-.7-.5-1-.7-.2-.1-.3-.1-.6-.1-.2 0-.4.1-.5.2 0 0-.1 0-.1.1-1.9 1.5-3.5 2-6.1 2s-4.2-.5-6.1-2c-.2-.1-.5-.3-.7-.3s-.4 0-.6.1c-.3.2-.5.4-.8.6-1.2.9-2.5 1.8-3.9 2.1-.7.1-1.6.3-2.3.3-.7-.1-1.5-.2-2.2-.3 4.7-7.8 5.1-14.5 3.5-19.9-1.4-4.7-4.5-8.3-7.4-10.6l2.4-.3c.9 0 2 .1 2.9.3 2.1.5 4.1 1.2 5.9 2.3.3.1.4.1.7.1s.6-.1.9-.3c2.4-1.7 4.4-2.9 7.7-2.9s5.2 1.2 7.7 2.9c.3.1.6.3.9.3s.4 0 .7-.1c1.8-1.1 3.8-1.9 5.9-2.3.9-.1 2-.3 2.9-.3l2.7.3c-3.1 2.4-6 5.9-7.5 10.6zm12.1-11.8s-.1 0 0 0h-.3c-.2 0-.4-.1-.5-.1h-.2c-2-.5-4.1-.8-6.2-1h-.2c-1.1 0-2.3.2-3.2.3h-.2c-2.2.5-4.2 1.2-6.1 2.3-2.4-1.7-4.8-3.1-8.6-3.1s-6.2 1.5-8.6 3.1c-1.9-1.1-3.9-1.9-6.1-2.3h-.2c-.9-.1-2.1-.3-3.2-.3h-.2c-2.1.2-4.1.5-6.2 1h-.2c-.2.1-.3.1-.5.1H38.7c-.6 0-1.2-.5-1.2-1.3 0-.4.1-.7.6-1.1 2.3-1.9 4.8-3.5 7.6-5 2.6-1.2 5.4-1.9 8.2-1.9h.9c2.1.1 4.2.3 5.8.6.8.1 1.5.3 2 .4.2 0 .3.1.4.1l1.2 1.1 1.2-1.1c.1 0 .2-.1.4-.1.5-.1 1.1-.3 2-.4 1.6-.3 3.7-.5 5.8-.6h.9c2.8 0 5.6.7 8.2 1.9 2.8 1.5 5.3 3.1 7.6 5 .5.4.6.7.6 1.1 0 .8-.6 1.3-1.2 1.3z"/></svg>