<svg width="126" height="84" viewBox="0 0 126 84" fill="none" xmlns="http://www.w3.org/2000/svg">
<path d="M10.5714 48.5714H66.2857V72.8629C66.2857 77.905 61.8843 82 56.4243 82H20.4329C14.9729 82 10.5714 77.905 10.5714 72.8629V48.5714Z" stroke="white" stroke-width="2.13" stroke-linecap="square" stroke-linejoin="round"/>
<path d="M66.23 48.5714H10.6271L12.8278 43.585C14.4992 39.7964 17.8978 37.4286 21.6028 37.4286H55.2821C59.015 37.4286 62.4135 39.8243 64.0571 43.585L66.2578 48.5714H66.23Z" stroke="white" stroke-width="2.13" stroke-linecap="square" stroke-linejoin="round"/>
<path d="M34.25 29.0714H42.6071C44.9193 29.0714 46.7857 30.7707 46.7857 32.86V36.6486H30.0714V32.86C30.0714 30.7707 31.9379 29.0714 34.25 29.0714Z" stroke="white" stroke-width="2.13" stroke-linecap="square" stroke-linejoin="round"/>
<path d="M5 54.1429H10.5714" stroke="white" stroke-width="2.13" stroke-linecap="square" stroke-linejoin="round"/>
<path d="M66.6479 54.1429H71.8572" stroke="white" stroke-width="2.13" stroke-linecap="square" stroke-linejoin="round"/>
<path d="M99.7143 4H89.9643V15.1429H99.7143V4Z" stroke="white" stroke-width="2.13" stroke-linecap="square" stroke-linejoin="round"/>
<path d="M113.643 48.5157L105.286 41.6071V66.6786L113.643 73.6429V48.5157Z" stroke="white" stroke-width="2.13" stroke-linecap="square" stroke-linejoin="round"/>
<path d="M88.5714 23.5H99.7143L122 43V76.4286C122 79.4929 119.493 82 116.429 82H85.7857C82.7214 82 80.2143 79.4929 80.2143 76.4286V34.6429L88.5714 23.5Z" stroke="white" stroke-width="2.13" stroke-linecap="square" stroke-linejoin="round"/>
</svg>
