<svg width="22" height="22" viewBox="0 0 48 48" fill="none" xmlns="http://www.w3.org/2000/svg">
<path fill-rule="evenodd" clip-rule="evenodd" d="M19 4.5C10.9919 4.5 4.5 10.9919 4.5 19C4.5 27.0081 10.9919 33.5 19 33.5C22.4638 33.5 25.6439 32.2855 28.1377 30.259L39 41.1213L41.1213 39L30.259 28.1377C32.2855 25.6439 33.5 22.4638 33.5 19C33.5 10.9919 27.0081 4.5 19 4.5ZM7.5 19C7.5 12.6487 12.6487 7.5 19 7.5C25.3513 7.5 30.5 12.6487 30.5 19C30.5 25.3513 25.3513 30.5 19 30.5C12.6487 30.5 7.5 25.3513 7.5 19Z" fill="#1B1B1B" stroke="black" stroke-width="1.2" stroke-linecap="square"/>
</svg>
